<svg width="19" height="21" viewBox="0 0 19 21" fill="none" xmlns="http://www.w3.org/2000/svg">
<path d="M12.24 0H8.346C6.582 0 5.184 0 4.091 0.148C2.965 0.3 2.054 0.62 1.336 1.341C0.617 2.062 0.298 2.977 0.147 4.107C7.45058e-08 5.205 0 6.608 0 8.379V14.217C0 15.725 0.92 17.017 2.227 17.559C2.16 16.649 2.16 15.374 2.16 14.312V9.302C2.16 8.021 2.16 6.916 2.278 6.032C2.405 5.084 2.691 4.176 3.425 3.439C4.159 2.702 5.064 2.415 6.008 2.287C6.888 2.169 7.988 2.169 9.265 2.169H12.335C13.611 2.169 14.709 2.169 15.59 2.287C15.3261 1.61329 14.8653 1.03474 14.2678 0.626783C13.6702 0.218828 12.9635 0.000405823 12.24 0Z" fill="white"/>
<path d="M4 9.783C4 7.057 4 5.694 4.844 4.847C5.687 4 7.044 4 9.76 4H12.64C15.355 4 16.713 4 17.557 4.847C18.401 5.694 18.4 7.057 18.4 9.783V14.603C18.4 17.329 18.4 18.692 17.557 19.539C16.713 20.386 15.355 20.386 12.64 20.386H9.76C7.045 20.386 5.687 20.386 4.844 19.539C4 18.692 4 17.329 4 14.603V9.783Z" fill="white"/>
</svg>
