<svg width="20" height="21" viewBox="0 0 20 21" fill="none" xmlns="http://www.w3.org/2000/svg">
<path d="M9.99805 15.9995C12.328 15.9995 14.298 14.5395 15.108 12.4995H4.88805C5.68805 14.5395 7.66805 15.9995 9.99805 15.9995ZM6.49805 9.49951C6.89587 9.49951 7.2774 9.34148 7.55871 9.06017C7.84001 8.77887 7.99805 8.39734 7.99805 7.99951C7.99805 7.60169 7.84001 7.22016 7.55871 6.93885C7.2774 6.65755 6.89587 6.49951 6.49805 6.49951C6.10022 6.49951 5.71869 6.65755 5.43739 6.93885C5.15608 7.22016 4.99805 7.60169 4.99805 7.99951C4.99805 8.39734 5.15608 8.77887 5.43739 9.06017C5.71869 9.34148 6.10022 9.49951 6.49805 9.49951ZM13.498 9.49951C13.8959 9.49951 14.2774 9.34148 14.5587 9.06017C14.84 8.77887 14.998 8.39734 14.998 7.99951C14.998 7.60169 14.84 7.22016 14.5587 6.93885C14.2774 6.65755 13.8959 6.49951 13.498 6.49951C13.1002 6.49951 12.7187 6.65755 12.4374 6.93885C12.1561 7.22016 11.998 7.60169 11.998 7.99951C11.998 8.39734 12.1561 8.77887 12.4374 9.06017C12.7187 9.34148 13.1002 9.49951 13.498 9.49951ZM9.99805 18.4995C7.87632 18.4995 5.84148 17.6567 4.34119 16.1564C2.8409 14.6561 1.99805 12.6212 1.99805 10.4995C1.99805 8.37778 2.8409 6.34295 4.34119 4.84266C5.84148 3.34237 7.87632 2.49951 9.99805 2.49951C12.1198 2.49951 14.1546 3.34237 15.6549 4.84266C17.1552 6.34295 17.998 8.37778 17.998 10.4995C17.998 12.6212 17.1552 14.6561 15.6549 16.1564C14.1546 17.6567 12.1198 18.4995 9.99805 18.4995ZM9.99805 0.499512C4.46805 0.499512 -0.00195312 4.99951 -0.00195312 10.4995C-0.00195312 13.1517 1.05162 15.6952 2.92698 17.5706C3.85556 18.4992 4.95796 19.2358 6.17121 19.7383C7.38447 20.2409 8.68483 20.4995 9.99805 20.4995C12.6502 20.4995 15.1938 19.4459 17.0691 17.5706C18.9445 15.6952 19.998 13.1517 19.998 10.4995C19.998 9.18629 19.7394 7.88593 19.2368 6.67268C18.7343 5.45942 17.9977 4.35703 17.0691 3.42844C16.1405 2.49986 15.0381 1.76326 13.8249 1.26072C12.6116 0.758169 11.3113 0.499512 9.99805 0.499512Z" fill="#354674"/>
</svg>
