<svg width="20" height="20" viewBox="0 0 20 20" fill="none" xmlns="http://www.w3.org/2000/svg">
<g clip-path="url(#clip0_1156_18689)">
<mask id="mask0_1156_18689" style="mask-type:luminance" maskUnits="userSpaceOnUse" x="0" y="0" width="20" height="20">
<path d="M20 0H0V20H20V0Z" fill="white"/>
</mask>
<g mask="url(#mask0_1156_18689)">
<path d="M19.6 10.2297C19.6 9.51969 19.54 8.83969 19.42 8.17969H10V12.0497H15.38C15.15 13.2997 14.44 14.3597 13.38 15.0697V17.5797H16.61C18.5 15.8397 19.59 13.2797 19.59 10.2297H19.6Z" fill="#4285F4"/>
<path d="M10.0001 19.9994C12.7001 19.9994 14.9601 19.0994 16.6201 17.5794L13.3901 15.0694C12.4901 15.6694 11.3501 16.0194 10.0001 16.0194C7.40006 16.0194 5.19006 14.2594 4.40006 11.8994H1.06006V14.4894C2.71006 17.7594 6.09006 19.9994 10.0001 19.9994Z" fill="#34A853"/>
<path d="M4.4 11.8998C4.2 11.2998 4.09 10.6598 4.09 9.99977C4.09 9.33977 4.2 8.69977 4.4 8.09977V5.50977H1.06C0.38 6.85977 0 8.38977 0 9.99977C0 11.6098 0.39 13.1398 1.06 14.4898L4.4 11.8998Z" fill="#FBBC04"/>
<path d="M10.0001 3.9798C11.4701 3.9798 12.7901 4.4798 13.8201 5.4798L16.6901 2.6098C14.9601 0.999799 12.6901 0.00979897 10.0001 0.00979897C6.09006 -0.000201028 2.71006 2.2398 1.06006 5.5098L4.40006 8.0998C5.19006 5.7398 7.39006 3.9798 10.0001 3.9798Z" fill="#E94235"/>
</g>
</g>
<defs>
<clipPath id="clip0_1156_18689">
<rect width="20" height="20" fill="white"/>
</clipPath>
</defs>
</svg>
